<svg xmlns="http://www.w3.org/2000/svg" viewBox="0 0 500 500"><g id="freepik--Floor--inject-23"><path d="M427.14,465.09c0,.15-79.76.26-178.13.26s-178.15-.11-178.15-.26,79.75-.26,178.15-.26S427.14,465,427.14,465.09Z" style="fill:#263238"></path></g><g id="freepik--Factors--inject-23"><path d="M338.55,211.54s0-.52-.07-1.54,0-2.55-.2-4.54a95.83,95.83,0,0,0-2.72-17.21,93.49,93.49,0,0,0-3.91-12A91.05,91.05,0,0,0,325,162.85a96.16,96.16,0,0,0-24.2-27.06A95,95,0,0,0,260.72,118a96.54,96.54,0,0,0-37.3.44,101.77,101.77,0,0,0-12.73,3.62,95.41,95.41,0,0,0-44.24,33.19,93.57,93.57,0,0,0-7.76,12.49c-1.17,2.18-2.17,4.45-3.2,6.73s-1.86,4.63-2.62,7a92.26,92.26,0,0,0-3.62,14.72,94.82,94.82,0,0,0,0,30.63,93.34,93.34,0,0,0,3.62,14.72c.76,2.4,1.71,4.72,2.63,7s2,4.55,3.19,6.73a94.21,94.21,0,0,0,7.76,12.49A95.49,95.49,0,0,0,210.69,301a100.15,100.15,0,0,0,12.73,3.63,96.34,96.34,0,0,0,37.3.43,95,95,0,0,0,40.09-17.78A96.53,96.53,0,0,0,325,260.23a91.86,91.86,0,0,0,6.63-13.42,93.72,93.72,0,0,0,6.63-29.19c.18-2,.14-3.51.2-4.53s.07-1.55.07-1.55,0,.53,0,1.55,0,2.55-.15,4.54a93.23,93.23,0,0,1-6.5,29.27,92.16,92.16,0,0,1-6.61,13.48A96.7,96.7,0,0,1,301,287.59a96.18,96.18,0,0,1-77.72,17.52,99.88,99.88,0,0,1-12.79-3.64A95.72,95.72,0,0,1,166,268.13a92.94,92.94,0,0,1-7.8-12.56c-1.18-2.19-2.19-4.48-3.22-6.76s-1.88-4.66-2.64-7.07a93.38,93.38,0,0,1-3.64-14.81,95.49,95.49,0,0,1,0-30.8,93.55,93.55,0,0,1,3.65-14.8c.76-2.41,1.72-4.74,2.64-7.07s2-4.57,3.21-6.76A94.55,94.55,0,0,1,166,155a95.88,95.88,0,0,1,44.49-33.34A101,101,0,0,1,223.32,118a96.7,96.7,0,0,1,37.48-.4A95.38,95.38,0,0,1,301,135.49a96.39,96.39,0,0,1,24.23,27.21,91.75,91.75,0,0,1,6.62,13.48,93.21,93.21,0,0,1,6.5,29.28c.17,2,.11,3.51.15,4.54S338.55,211.54,338.55,211.54Z" style="fill:#263238"></path><path d="M119.31,322.9c-.1-.1,11.05-11.54,24.91-25.53S169.4,272.1,169.5,272.2s-11.05,11.53-24.91,25.53S119.41,323,119.31,322.9Z" style="fill:#263238"></path><circle cx="127.09" cy="312.28" r="30.69" style="fill:#F59E0B"></circle><path d="M157.78,312.28a4.93,4.93,0,0,1-.05-.5c0-.35-.06-.83-.1-1.46,0-.32,0-.68-.07-1.07s-.12-.82-.19-1.28a22,22,0,0,0-.65-3.16,29.08,29.08,0,0,0-3.4-8.13,30.68,30.68,0,0,0-7.77-8.65,30.33,30.33,0,0,0-12.83-5.68,28.52,28.52,0,0,0-3.85-.45c-.66,0-1.32-.08-2-.07l-2,.1c-.33,0-.67,0-1,.07l-1,.16c-.68.11-1.37.19-2,.33a32.26,32.26,0,0,0-4.06,1.19,31.54,31.54,0,0,0-4,1.75c-.64.35-1.25.75-1.89,1.13a15.07,15.07,0,0,0-1.84,1.27,35.18,35.18,0,0,0-3.45,2.93,33.88,33.88,0,0,0-3,3.53,29.54,29.54,0,0,0-4.35,8.38,30.14,30.14,0,0,0,0,19.2,29.34,29.34,0,0,0,4.35,8.39,27.64,27.64,0,0,0,6.43,6.46,15.07,15.07,0,0,0,1.84,1.27c.63.38,1.25.78,1.89,1.13a31.54,31.54,0,0,0,4,1.75,32.26,32.26,0,0,0,4.06,1.19c.69.14,1.38.22,2,.34l1,.15c.34.05.68.05,1,.07l2,.1c.67,0,1.33-.05,2-.07a28.52,28.52,0,0,0,3.85-.45,30.62,30.62,0,0,0,20.6-14.33,29.08,29.08,0,0,0,3.4-8.13,22,22,0,0,0,.65-3.16c.07-.46.15-.89.19-1.28s.05-.75.07-1.07c0-.62.07-1.11.1-1.46a4.45,4.45,0,0,1,.05-.49s0,.16,0,.49l-.05,1.46c0,.33,0,.69,0,1.08s-.11.83-.17,1.29a21.86,21.86,0,0,1-.6,3.19,29.31,29.31,0,0,1-3.35,8.23,30.92,30.92,0,0,1-20.77,14.61,29.41,29.41,0,0,1-3.91.46c-.66,0-1.33.09-2,.09l-2-.1c-.34,0-.69,0-1-.07l-1-.15c-.69-.12-1.39-.2-2.08-.34a32.82,32.82,0,0,1-4.13-1.2,31.15,31.15,0,0,1-4-1.77c-.65-.35-1.28-.76-1.93-1.14a16.69,16.69,0,0,1-1.86-1.29,36.4,36.4,0,0,1-3.52-3,35,35,0,0,1-3-3.59A29.64,29.64,0,0,1,97.75,322a30.6,30.6,0,0,1,0-19.53,29.52,29.52,0,0,1,4.43-8.52,35,35,0,0,1,3-3.59,36.4,36.4,0,0,1,3.52-3,15.93,15.93,0,0,1,1.87-1.29c.64-.38,1.27-.79,1.92-1.14a31.15,31.15,0,0,1,4-1.77,32.82,32.82,0,0,1,4.13-1.2c.69-.14,1.39-.22,2.08-.33l1-.16c.34,0,.69,0,1-.06l2-.1c.67,0,1.35.05,2,.08a29.41,29.41,0,0,1,3.91.46,30.92,30.92,0,0,1,20.77,14.61,29.31,29.31,0,0,1,3.35,8.23,21.86,21.86,0,0,1,.6,3.19c.06.47.14.89.17,1.29s0,.75,0,1.08c0,.62,0,1.11.05,1.46S157.78,312.28,157.78,312.28Z" style="fill:#263238"></path><path d="M329.42,170.79c-.07-.12,9-5.58,20.24-12.19s20.43-11.86,20.5-11.74-9,5.58-20.24,12.19S329.5,170.91,329.42,170.79Z" style="fill:#263238"></path><circle cx="376.28" cy="141.38" r="30.69" style="fill:#F59E0B"></circle><path d="M345.59,141.38s0-.17,0-.5,0-.83.05-1.46c0-.32,0-.68,0-1.08s.11-.82.17-1.29a21.86,21.86,0,0,1,.6-3.19,29.15,29.15,0,0,1,3.35-8.22A30.83,30.83,0,0,1,370.57,111a27.85,27.85,0,0,1,3.91-.47c.66,0,1.34-.09,2-.08l2.05.1c.34,0,.69,0,1,.06l1,.16c.69.11,1.39.19,2.08.33a34.59,34.59,0,0,1,4.13,1.2,34.15,34.15,0,0,1,4,1.77c.65.35,1.28.76,1.92,1.15a14.73,14.73,0,0,1,1.87,1.28,28.07,28.07,0,0,1,6.55,6.56,29.78,29.78,0,0,1,4.43,8.52,30.6,30.6,0,0,1,0,19.53,29.7,29.7,0,0,1-4.43,8.53,36,36,0,0,1-3,3.58,34.05,34.05,0,0,1-3.52,3,15.37,15.37,0,0,1-1.86,1.28c-.65.38-1.28.8-1.93,1.15a34.15,34.15,0,0,1-4,1.77,34.59,34.59,0,0,1-4.13,1.2c-.69.14-1.39.22-2.08.33l-1,.16c-.34,0-.69,0-1,.06l-2.05.1c-.68,0-1.35-.06-2-.08a27.85,27.85,0,0,1-3.91-.47,30.83,30.83,0,0,1-20.77-14.61,29.15,29.15,0,0,1-3.35-8.22,21.86,21.86,0,0,1-.6-3.19c-.06-.47-.14-.9-.17-1.29s0-.76,0-1.08l-.05-1.46c0-.33,0-.5,0-.5a4.93,4.93,0,0,1,.05.5c0,.35.06.83.1,1.45,0,.32,0,.68.07,1.07s.12.82.19,1.28a22.1,22.1,0,0,0,.65,3.17,29.16,29.16,0,0,0,3.4,8.12,30.67,30.67,0,0,0,20.6,14.34,27,27,0,0,0,3.85.44c.66,0,1.32.09,2,.08l2-.11c.34,0,.68,0,1-.06l1-.16c.68-.11,1.36-.19,2-.33a32.32,32.32,0,0,0,4.06-1.2,31.47,31.47,0,0,0,4-1.74c.64-.35,1.26-.76,1.89-1.14a16.19,16.19,0,0,0,1.84-1.26,32.91,32.91,0,0,0,3.45-2.94,33.88,33.88,0,0,0,3-3.53,29.29,29.29,0,0,0,4.35-8.38,30.14,30.14,0,0,0,0-19.2,29.6,29.6,0,0,0-4.35-8.39,34.83,34.83,0,0,0-3-3.52,34,34,0,0,0-3.45-2.94,17.7,17.7,0,0,0-1.84-1.27c-.64-.37-1.25-.78-1.89-1.13a31.47,31.47,0,0,0-4-1.74,32.32,32.32,0,0,0-4.06-1.2c-.68-.14-1.37-.22-2-.33l-1-.16c-.34,0-.68,0-1-.06l-2-.11c-.67,0-1.33,0-2,.08a27,27,0,0,0-3.85.44,30.71,30.71,0,0,0-20.6,14.33,29.2,29.2,0,0,0-3.4,8.13,22.1,22.1,0,0,0-.65,3.17c-.06.46-.15.88-.19,1.28l-.07,1.07c0,.62-.07,1.1-.1,1.45A4.93,4.93,0,0,1,345.59,141.38Z" style="fill:#263238"></path><path d="M366.93,325.62c-.11.1-11.67-11.42-25.84-25.73s-25.57-26-25.47-26.1,11.67,11.42,25.84,25.73S367,325.52,366.93,325.62Z" style="fill:#263238"></path><path d="M370.76,132.43a10.44,10.44,0,0,1,2.57-1.12l.53-2.55,4.31-.07.62,2.52a11,11,0,0,1,2.61,1l2.18-1.42,3.1,3L385.33,136a10.9,10.9,0,0,1,1.12,2.58l2.55.53.07,4.3-2.53.62a10.48,10.48,0,0,1-1,2.62l1.42,2.17-3,3.1-2.22-1.35a10.14,10.14,0,0,1-2.58,1.12l-.53,2.55-4.31.08-.62-2.53a10.59,10.59,0,0,1-2.61-1l-2.17,1.43-3.1-3,1.35-2.23a10.08,10.08,0,0,1-1.12-2.57l-2.55-.54-.08-4.3,2.53-.62a10.59,10.59,0,0,1,1-2.61l-1.43-2.18,3-3.1,2.23,1.35Zm2.29,5.74a4.62,4.62,0,1,0,6.54-.12A4.62,4.62,0,0,0,373.05,138.17Z" style="fill:#fff"></path><path d="M373.05,138.17a3.75,3.75,0,0,1,.87-.76,4.66,4.66,0,0,1,5.06,0,4.68,4.68,0,0,1,1.65,1.86,4.42,4.42,0,0,1,.43,1.3,4.5,4.5,0,0,1,0,1.42,4.69,4.69,0,0,1-3.9,4,4.52,4.52,0,0,1-1.42,0,4.41,4.41,0,0,1-1.31-.38,4.68,4.68,0,0,1-2.73-3.61,4.62,4.62,0,0,1,.61-3,3.43,3.43,0,0,1,.72-.88s-.27.3-.63.93a4.59,4.59,0,0,0-.51,3,4.46,4.46,0,0,0,.79,1.92,4.52,4.52,0,0,0,1.85,1.5,4.22,4.22,0,0,0,1.24.35,4.38,4.38,0,0,0,1.35,0,4.48,4.48,0,0,0,3.68-3.82,4.36,4.36,0,0,0,0-1.35,4.31,4.31,0,0,0-.39-1.23,4.57,4.57,0,0,0-1.56-1.79,4.73,4.73,0,0,0-1.95-.73,4.61,4.61,0,0,0-2.94.62C373.35,137.88,373.08,138.19,373.05,138.17Z" style="fill:#fff"></path><path d="M370.76,132.43l-.14-.08-.43-.24-1.68-1h.05l-3,3.12v-.09l1.43,2.17,0,0,0,0a10.2,10.2,0,0,0-1,2.6l0,0H366l-2.53.63.08-.09c0,1.35.05,2.79.08,4.3l-.08-.1,2.55.53h.06l0,.07a10.79,10.79,0,0,0,1.11,2.54l0,.06,0,.06-1.34,2.23,0-.15,3.1,3-.15,0,2.17-1.42.07-.05.06,0a10.27,10.27,0,0,0,2.59,1l.07,0,0,.08c.19.79.41,1.65.62,2.53l-.13-.1,4.31-.08-.13.1c.17-.8.35-1.67.53-2.54l0-.08.08,0a10.84,10.84,0,0,0,2.54-1.11h0l.07,0,.07,0,2.22,1.35-.16,0,3-3.1,0,.17-1.42-2.18-.05-.07,0-.07a10.35,10.35,0,0,0,1-2.58l0-.07.07,0,2.53-.62-.09.13c0-1.47-.05-2.91-.07-4.31l.09.12-2.55-.54h-.07l0-.07a10.19,10.19,0,0,0-1.1-2.55l0-.06,0-.06q.7-1.14,1.35-2.22l0,.14-3.09-3h.13l-2.18,1.42,0,0-.05,0a10.28,10.28,0,0,0-2.59-1h0v0c-.23-.92-.43-1.75-.61-2.54l.07.06-4.3.06.05,0c-.22,1-.39,1.85-.54,2.55v0h0a10.55,10.55,0,0,0-2,.76l-.47.24-.15.08.14-.1.46-.26a10.2,10.2,0,0,1,2-.8l0,0,.52-2.55v-.05h0l4.31-.09h.06l0,.06c.19.78.4,1.61.63,2.52l-.07-.06a10.59,10.59,0,0,1,2.64,1h-.1l2.17-1.43.07,0,.06.05,3.11,3,.06.06-.05.07c-.43.73-.88,1.47-1.34,2.23V136a10.52,10.52,0,0,1,1.13,2.61l-.09-.09L389,139l.1,0v.1c0,1.4.05,2.83.08,4.3v.1l-.1,0-2.52.62.09-.09a10.44,10.44,0,0,1-1,2.64v-.13l1.42,2.17.06.09L387,149c-1,1-2,2.05-3,3.09l-.08.08-.09-.05-2.22-1.35h.13a11,11,0,0,1-2.6,1.13l.09-.1-.53,2.55,0,.1h-.11l-4.3.08h-.11l0-.1c-.22-.87-.43-1.74-.62-2.53l.09.09a10.46,10.46,0,0,1-2.64-1h.13L369,152.32l-.08.05-.07-.06-3.1-3-.06-.07,0-.08,1.35-2.22v.12a10.53,10.53,0,0,1-1.13-2.61l.08.08-2.54-.53-.09,0v-.08c0-1.51,0-3-.06-4.31v-.08h.07l2.53-.62-.06.07a10.69,10.69,0,0,1,1-2.63v.08l-1.41-2.18,0-.05,0,0,3-3.08,0,0h0l1.63,1,.43.27Z" style="fill:#fff"></path><circle cx="358.68" cy="315.71" r="30.69" style="fill:#F59E0B"></circle><path d="M328,315.71s0-.17,0-.5,0-.84.05-1.46c0-.32,0-.68,0-1.08s.11-.82.17-1.29a23.29,23.29,0,0,1,.6-3.19,29.07,29.07,0,0,1,3.36-8.23A30.85,30.85,0,0,1,353,285.35a29.07,29.07,0,0,1,3.9-.46c.67,0,1.34-.09,2-.08l2,.1c.34,0,.69,0,1,.06l1,.16c.68.11,1.38.19,2.08.33a32.68,32.68,0,0,1,4.12,1.2,31.94,31.94,0,0,1,4,1.77c.65.35,1.28.76,1.93,1.15a15.47,15.47,0,0,1,1.87,1.28,35,35,0,0,1,3.51,3,33.7,33.7,0,0,1,3,3.58,29.64,29.64,0,0,1,4.43,8.52,30.69,30.69,0,0,1,0,19.53A30,30,0,0,1,383.6,334a28.37,28.37,0,0,1-6.55,6.57,16.72,16.72,0,0,1-1.87,1.28c-.65.38-1.28.79-1.93,1.15a31.87,31.87,0,0,1-4,1.76,31.1,31.1,0,0,1-4.12,1.2c-.7.15-1.4.23-2.09.34l-1,.15c-.34.05-.69.05-1,.07l-2.05.1c-.67,0-1.34-.06-2-.08a29.41,29.41,0,0,1-3.91-.47,30.92,30.92,0,0,1-20.77-14.61,29.31,29.31,0,0,1-3.35-8.23,22.74,22.74,0,0,1-.6-3.19c-.06-.46-.13-.89-.17-1.29s0-.75,0-1.07l-.05-1.46c0-.33,0-.5,0-.5a4.9,4.9,0,0,1,.05.49c0,.35.06.84.1,1.46l.07,1.07c0,.39.13.82.2,1.28a23,23,0,0,0,.64,3.16,29.38,29.38,0,0,0,3.4,8.13,30.67,30.67,0,0,0,20.6,14.34,28.67,28.67,0,0,0,3.86.44c.65,0,1.31.09,2,.08l2-.11c.34,0,.68,0,1-.06l1-.16c.68-.11,1.37-.19,2.05-.33a31.83,31.83,0,0,0,4.06-1.2,31.47,31.47,0,0,0,4-1.74c.64-.35,1.26-.76,1.89-1.14a15.35,15.35,0,0,0,1.84-1.26,28.25,28.25,0,0,0,6.44-6.47,29.54,29.54,0,0,0,4.35-8.38,30.26,30.26,0,0,0,0-19.21,29.42,29.42,0,0,0-4.35-8.38,34.75,34.75,0,0,0-3-3.53,34,34,0,0,0-3.45-2.93,14.34,14.34,0,0,0-1.84-1.27c-.63-.38-1.25-.78-1.89-1.13a33.06,33.06,0,0,0-4-1.75,33.49,33.49,0,0,0-4.06-1.19c-.68-.14-1.37-.22-2.05-.33l-1-.16c-.34,0-.68,0-1-.07l-2-.1c-.66,0-1.33.05-2,.08a27.13,27.13,0,0,0-3.86.44,30.57,30.57,0,0,0-20.59,14.33,29.26,29.26,0,0,0-3.41,8.13,23.59,23.59,0,0,0-.64,3.16c-.07.47-.16.89-.2,1.28s0,.75-.07,1.08c0,.62-.07,1.1-.1,1.45A4.93,4.93,0,0,1,328,315.71Z" style="fill:#263238"></path><path d="M360.81,317.05a5.69,5.69,0,0,0,3.39-5.27,5.35,5.35,0,1,0-10.68,0,5.68,5.68,0,0,0,3.41,5.32c-8.22,1.24-7.85,10.17-7.85,10.17l19.43.09S369,318.28,360.81,317.05Z" style="fill:#fff"></path><path d="M372.86,311a3.54,3.54,0,0,0,2.12-3.3,3.35,3.35,0,1,0-6.69,0,3.56,3.56,0,0,0,2.14,3.33c-5.15.78-4.92,6.37-4.92,6.37l12.17.05S378,311.76,372.86,311Z" style="fill:#fff"></path><path d="M347,311a3.54,3.54,0,0,0,2.12-3.3,3.35,3.35,0,1,0-6.68,0,3.55,3.55,0,0,0,2.13,3.33c-5.15.78-4.92,6.37-4.92,6.37l12.17.05S352.12,311.76,347,311Z" style="fill:#fff"></path><path d="M164.31,157.81c-.09.12-9.4-6.54-20.8-14.86S122.93,127.78,123,127.66s9.39,6.54,20.8,14.87S164.39,157.69,164.31,157.81Z" style="fill:#263238"></path><rect x="114.17" y="313.99" width="7.08" height="8.12" style="fill:#fff"></rect><rect x="123.39" y="308.82" width="7.08" height="13.29" style="fill:#fff"></rect><rect x="132.94" y="302.44" width="7.08" height="19.68" style="fill:#fff"></rect><circle cx="116.91" cy="122.18" r="30.69" style="fill:#F59E0B"></circle><path d="M147.59,122.18a4.93,4.93,0,0,1-.05-.5c0-.35-.06-.83-.1-1.45,0-.32,0-.68-.07-1.07s-.12-.82-.19-1.28a22.1,22.1,0,0,0-.65-3.17,29.33,29.33,0,0,0-3.4-8.13,30.71,30.71,0,0,0-20.6-14.33,27,27,0,0,0-3.85-.44c-.66,0-1.32-.09-2-.08l-2,.11c-.34,0-.68,0-1,.06l-1,.16c-.68.11-1.36.19-2,.33a32.32,32.32,0,0,0-4.06,1.2,31.47,31.47,0,0,0-4,1.74c-.64.35-1.25.76-1.89,1.13a17.7,17.7,0,0,0-1.84,1.27,34,34,0,0,0-3.45,2.94,34.83,34.83,0,0,0-3,3.52,29.6,29.6,0,0,0-4.35,8.39,30.14,30.14,0,0,0,0,19.2,29.29,29.29,0,0,0,4.35,8.38,33.88,33.88,0,0,0,3,3.53,32.91,32.91,0,0,0,3.45,2.94,17.7,17.7,0,0,0,1.84,1.27c.64.37,1.25.78,1.89,1.13a31.47,31.47,0,0,0,4,1.74,32.32,32.32,0,0,0,4.06,1.2c.69.14,1.38.22,2,.33l1,.16c.34,0,.68,0,1,.06l2,.11c.67,0,1.33,0,2-.08a27,27,0,0,0,3.85-.44,30.67,30.67,0,0,0,20.6-14.34,29.16,29.16,0,0,0,3.4-8.12,22.1,22.1,0,0,0,.65-3.17c.07-.46.15-.88.19-1.28l.07-1.07c0-.62.07-1.1.1-1.45a4.93,4.93,0,0,1,.05-.5s0,.17,0,.5l-.05,1.46c0,.32,0,.68,0,1.08s-.11.82-.17,1.29a21.86,21.86,0,0,1-.6,3.19,29.15,29.15,0,0,1-3.35,8.22,30.83,30.83,0,0,1-20.77,14.61,27.85,27.85,0,0,1-3.91.47c-.66,0-1.33.09-2,.08l-2-.1c-.34,0-.69,0-1-.06l-1-.16c-.69-.11-1.39-.19-2.08-.33a34.59,34.59,0,0,1-4.13-1.2,34.15,34.15,0,0,1-4-1.77c-.65-.35-1.28-.76-1.93-1.15A15.37,15.37,0,0,1,98.54,147a35.14,35.14,0,0,1-3.52-3,36,36,0,0,1-3-3.58,29.7,29.7,0,0,1-4.43-8.53,30.6,30.6,0,0,1,0-19.53A29.78,29.78,0,0,1,92,103.89a36,36,0,0,1,3-3.58,35.14,35.14,0,0,1,3.52-3,14.73,14.73,0,0,1,1.87-1.28c.64-.39,1.27-.8,1.92-1.15a34.15,34.15,0,0,1,4-1.77,34.59,34.59,0,0,1,4.13-1.2c.69-.14,1.39-.22,2.08-.33l1-.16c.34,0,.69,0,1-.06l2-.1c.67,0,1.35.06,2,.08a27.85,27.85,0,0,1,3.91.47,30.83,30.83,0,0,1,20.77,14.61,29.15,29.15,0,0,1,3.35,8.22,21.86,21.86,0,0,1,.6,3.19c.06.47.14.9.17,1.29s0,.76,0,1.08c0,.63,0,1.11.05,1.46S147.59,122.18,147.59,122.18Z" style="fill:#263238"></path><path d="M127.09,118.47a10.19,10.19,0,1,0-14.53,9.22v2.57h8.93s.06-1.45.08-2.73A10.2,10.2,0,0,0,127.09,118.47Z" style="fill:#fff"></path><path d="M118.26,130.21a.55.55,0,0,0,0-.12l0-.37c0-.32.09-.8.18-1.41s.21-1.36.41-2.21a15.49,15.49,0,0,1,.92-2.84,10.54,10.54,0,0,1,.84-1.53,1.92,1.92,0,0,1,.7-.62,1.07,1.07,0,0,1,1,0,.75.75,0,0,1,.32.4.8.8,0,0,1,0,.53,1.45,1.45,0,0,1-.79.67,2.8,2.8,0,0,1-2.12-.14,2.86,2.86,0,0,1-1.44-1.71,2.11,2.11,0,0,1-.06-1.17.92.92,0,0,1,.93-.71.68.68,0,0,1,.52.36,1,1,0,0,1,.08.63,2,2,0,0,1-.72,1,3,3,0,0,1-2.37.69,2.64,2.64,0,0,1-2-1.47,1.51,1.51,0,0,1-.07-1.23.75.75,0,0,1,.44-.45.77.77,0,0,1,.63,0,1,1,0,0,1,.43.45,1.58,1.58,0,0,1,.16.59,2.84,2.84,0,0,1-.16,1.16,3,3,0,0,1-1.43,1.71,3.07,3.07,0,0,1-2.11.29,1.62,1.62,0,0,1-.92-.48.8.8,0,0,1-.06-1,.69.69,0,0,1,.46-.22,1,1,0,0,1,.49.09,1.5,1.5,0,0,1,.62.7c.26.56.46,1.09.67,1.61.82,2,1.39,3.74,1.78,4.91.19.59.34,1.05.43,1.36,0,.15.08.27.11.35l0,.13a.64.64,0,0,1,0-.12l-.12-.35-.46-1.35c-.4-1.17-1-2.85-1.81-4.9-.21-.51-.42-1.05-.68-1.59a1.32,1.32,0,0,0-.58-.65.61.61,0,0,0-.76,1,1.55,1.55,0,0,0,.86.44,3,3,0,0,0,2-.28,2.91,2.91,0,0,0,1.38-1.65,3,3,0,0,0,.15-1.11,1.14,1.14,0,0,0-.53-.94.67.67,0,0,0-.52,0,.64.64,0,0,0-.38.39,1.4,1.4,0,0,0,.07,1.13,2.51,2.51,0,0,0,1.88,1.4,2.92,2.92,0,0,0,2.27-.66,1.94,1.94,0,0,0,.68-1,.84.84,0,0,0-.07-.54.58.58,0,0,0-.43-.3.73.73,0,0,0-.5.17.84.84,0,0,0-.29.45,2,2,0,0,0,.06,1.11,2.68,2.68,0,0,0,3.4,1.78,1.32,1.32,0,0,0,.73-.62.6.6,0,0,0-.24-.79,1,1,0,0,0-.87,0,1.79,1.79,0,0,0-.66.59,9.87,9.87,0,0,0-.84,1.51,15.34,15.34,0,0,0-.93,2.81c-.2.85-.33,1.6-.43,2.21s-.16,1.08-.21,1.4c0,.16,0,.28,0,.37Z" style="fill:#F59E0B"></path><path d="M120.81,131.91h-7.67a.58.58,0,0,1-.58-.58h0a.58.58,0,0,1,.58-.57h7.67a.58.58,0,0,1,.57.57h0A.58.58,0,0,1,120.81,131.91Z" style="fill:#fff"></path><path d="M120.81,132.41h-7.67a.58.58,0,0,0-.58.58.57.57,0,0,0,.58.57H114l1.12,2.13a.73.73,0,0,0,.65.39h2.74a.74.74,0,0,0,.66-.4l1.08-2.12h.58a.57.57,0,0,0,.57-.57A.58.58,0,0,0,120.81,132.41Z" style="fill:#fff"></path><path d="M119,135.86a5.22,5.22,0,0,1-.53-.16,4.3,4.3,0,0,0-1.3-.16,4,4,0,0,0-1.29.24,5.16,5.16,0,0,1-.52.19,1.85,1.85,0,0,1,.49-.28,3.94,3.94,0,0,1,1.32-.28,3.78,3.78,0,0,1,1.33.21A1.71,1.71,0,0,1,119,135.86Z" style="fill:#F59E0B"></path><path d="M120.25,133.59s-1.39.06-3.09.06-3.1,0-3.1-.06,1.38-.06,3.1-.06S120.25,133.55,120.25,133.59Z" style="fill:#F59E0B"></path><path d="M119.77,134.5a3.88,3.88,0,0,1-.75.08c-.47,0-1.12,0-1.83.06s-1.36,0-1.83,0a4.14,4.14,0,0,1-.76-.06,4,4,0,0,1,.76,0l1.83,0,1.82,0A4.19,4.19,0,0,1,119.77,134.5Z" style="fill:#F59E0B"></path></g><g id="freepik--Character--inject-23"><path d="M225.08,432.92l1.72,28.73-5.19,23.12a3,3,0,0,0,2.43,3.56h0a2.92,2.92,0,0,0,2.56-.85c4.24-4.38,19.46-20.4,19.4-22.19-.08-2.33.28-30.88.28-30.88Z" style="fill:#455a64"></path><path d="M224,488.33,246,462l.06,2.14c0,1.18.07,1.8-.59,2.63a243.93,243.93,0,0,1-18.53,21.17c-.68.71-1.93.59-2.9.41Z" style="fill:#263238"></path><path d="M239.77,453.84a1.78,1.78,0,0,0-.4,2.35,1.72,1.72,0,0,0,2.32.42,1.89,1.89,0,0,0,.41-2.49,1.79,1.79,0,0,0-2.46-.17" style="fill:#fff"></path><path d="M230.15,475.52c-.16.09-.86-1.4-2.6-2.14a8.83,8.83,0,0,0-3.34-.51c0-.07.33-.31,1-.43a4.71,4.71,0,0,1,4.59,2.05C230.16,475.07,230.22,475.5,230.15,475.52Z" style="fill:#263238"></path><path d="M228.25,479.45c-.14.13-1.09-.77-2.6-1.14s-2.77-.08-2.82-.26,1.27-.81,3-.35S228.39,479.37,228.25,479.45Z" style="fill:#263238"></path><path d="M233.78,470.44c-.13.14-1.59-1.25-3.88-2s-4.29-.65-4.31-.84,2.07-.63,4.52.24S233.92,470.36,233.78,470.44Z" style="fill:#263238"></path><path d="M234,461.66c-.07.18-1.69-.43-3.76-.42s-3.69.56-3.76.38,1.54-1,3.77-1A5.82,5.82,0,0,1,234,461.66Z" style="fill:#263238"></path><path d="M233.69,453.22c-.08.17-1.71-.73-3.89-.55s-3.67,1.25-3.78,1.1.25-.43.9-.84a6.46,6.46,0,0,1,5.76-.42C233.38,452.83,233.73,453.15,233.69,453.22Z" style="fill:#263238"></path><path d="M229.79,451.06a2.36,2.36,0,0,1-.08-1.09,7.54,7.54,0,0,1,.76-2.88,3.29,3.29,0,0,1,1.38-1.65,1.17,1.17,0,0,1,1.34.21,1.91,1.91,0,0,1,.5,1.28,4.16,4.16,0,0,1-3.5,4,4.82,4.82,0,0,1-4.84-2.35,1.67,1.67,0,0,1-.14-1.39,1.17,1.17,0,0,1,1.2-.66,4.14,4.14,0,0,1,1.93.91,8.42,8.42,0,0,1,2,2.17c.38.59.51,1,.47,1a13,13,0,0,0-2.78-2.77,3.85,3.85,0,0,0-1.7-.76.61.61,0,0,0-.65.36,1.11,1.11,0,0,0,.14.91,4.32,4.32,0,0,0,4.22,2,3.62,3.62,0,0,0,3-3.35,1.41,1.41,0,0,0-.31-.91.64.64,0,0,0-.74-.12,3,3,0,0,0-1.19,1.37A11.09,11.09,0,0,0,229.79,451.06Z" style="fill:#263238"></path><path d="M289.44,427.92l-1,23.78s23.84,9,24.08,13.39l-46.16-.25V427.73Z" style="fill:#455a64"></path><path d="M274.19,449.62a1.88,1.88,0,0,0-1.32,2.14,1.81,1.81,0,0,0,2.12,1.32,2,2,0,0,0,1.38-2.28,1.89,1.89,0,0,0-2.35-1.13" style="fill:#fff"></path><path d="M266.37,464.84v-3.38l44.5,1.29s1.57,1.06,1.66,2.34Z" style="fill:#263238"></path><path d="M289.2,451.46c0,.23-1.14.33-2.25,1s-1.71,1.67-1.92,1.58.14-1.39,1.5-2.24S289.25,451.26,289.2,451.46Z" style="fill:#263238"></path><path d="M294,453.49c.05.22-.93.6-1.7,1.55s-1,2-1.22,1.95-.36-1.29.62-2.45S294,453.28,294,453.49Z" style="fill:#263238"></path><path d="M296.75,459.3c-.21.05-.51-1.08.07-2.31s1.65-1.71,1.74-1.53-.56.85-1,1.87S297,459.28,296.75,459.3Z" style="fill:#263238"></path><path d="M288.82,446c-.09.21-1.12-.11-2.4,0s-2.27.48-2.39.28.85-1,2.35-1.06S288.94,445.84,288.82,446Z" style="fill:#263238"></path><path d="M309.1,99.93l1.38-7.87S308.75,82,309.16,80.62s1.31-8.1,1.31-8.1l7.49-7a2.43,2.43,0,0,1,2.17,1.62s3.12,0,3.62,2.19A1.78,1.78,0,0,1,326.23,71a8.68,8.68,0,0,1,0,2c.43.14,2.94,1,2.85,2.28a20,20,0,0,1-1.61,5.65,2.16,2.16,0,0,1-1.69,1.16h0l-1.08,3.41s-1.2,5.65-2.73,8.2l-1.11,1.49-1,7.72A19.61,19.61,0,0,1,309.1,99.93Z" style="fill:#b06b5a"></path><path d="M321.65,72.08A13.76,13.76,0,0,0,320,66.82l-2.75,1.41a17.14,17.14,0,0,0,.82,2.68,3.4,3.4,0,0,0,2,2.28,1.23,1.23,0,0,0,1.55-.43A1.55,1.55,0,0,0,321.65,72.08Z" style="fill:#b06b5a"></path><path d="M317.25,68.23a1.52,1.52,0,0,0,.06.55,11.6,11.6,0,0,0,.44,1.43c.1.31.2.63.32,1a3.92,3.92,0,0,0,.57,1.06,3,3,0,0,0,1,.89,1.81,1.81,0,0,0,1.43.18,1,1,0,0,0,.59-.51,1.44,1.44,0,0,0,.08-.73,9,9,0,0,0-.18-1.31,12.13,12.13,0,0,0-.66-2.12c-.24-.59-.47-1-.63-1.36a3.64,3.64,0,0,0-.28-.47,2.18,2.18,0,0,0,.2.51c.14.32.35.79.57,1.37a14.77,14.77,0,0,1,.6,2.11,10.39,10.39,0,0,1,.17,1.28,1.29,1.29,0,0,1-.07.63.7.7,0,0,1-.46.39,1.59,1.59,0,0,1-1.26-.16,2.93,2.93,0,0,1-.95-.82,3.84,3.84,0,0,1-.56-1c-.13-.34-.23-.68-.35-1-.22-.59-.4-1.06-.49-1.4S317.26,68.23,317.25,68.23Z" style="fill:#844e42"></path><path d="M321,73.25a.47.47,0,0,0,0,.15,2.27,2.27,0,0,0,0,.44,3.84,3.84,0,0,0,.28,1.61,5,5,0,0,0,1.41,2,1.83,1.83,0,0,0,1.39.44,1.32,1.32,0,0,0,.73-.35,1.27,1.27,0,0,0,.34-.76,7,7,0,0,0-.12-1.54c-.07-.49-.15-1-.24-1.4-.19-.88-.36-1.67-.5-2.35s-.24-1.22-.3-1.59a3.5,3.5,0,0,0-.12-.59,3,3,0,0,0,0,.6c0,.38.12.93.24,1.61s.28,1.48.45,2.36c.08.44.16.91.23,1.39a6.76,6.76,0,0,1,.11,1.49,1.08,1.08,0,0,1-.28.63,1,1,0,0,1-.6.29,1.63,1.63,0,0,1-1.24-.39,5.09,5.09,0,0,1-1.39-1.87,4.54,4.54,0,0,1-.34-1.55A5.42,5.42,0,0,0,321,73.25Z" style="fill:#844e42"></path><path d="M322.27,77.07a.87.87,0,0,0-.08.17,3.74,3.74,0,0,0-.16.5,6,6,0,0,0-.18,1.93,4.28,4.28,0,0,0,1,2.67,2.32,2.32,0,0,0,1.52.8,1.24,1.24,0,0,0,.91-.3,1.79,1.79,0,0,0,.45-.86,23.34,23.34,0,0,0,.26-3.51c0-1.07,0-2,0-2.86s0-1.47.07-1.92a6.26,6.26,0,0,0,0-.71s0,.06,0,.18-.05.29-.07.52c-.06.45-.11,1.11-.14,1.93s-.05,1.79-.09,2.85a25.41,25.41,0,0,1-.28,3.47,1.42,1.42,0,0,1-.38.75,1,1,0,0,1-.75.25A2.18,2.18,0,0,1,323,82.2a4.21,4.21,0,0,1-1-2.54A7.93,7.93,0,0,1,322.27,77.07Z" style="fill:#844e42"></path><path d="M170,66S160.64,51.66,159,44.48c-1.57-7-3.48-18.92-3.48-18.92s-1.85-.26-2.38,6.33-.56,10.87-.56,10.87l-10.25-9.28a4.17,4.17,0,0,0,0,5c1.85,2.9,8.42,10.34,8.42,10.34l-2.35,2.05s-5.6-3.43-6.89-.53,5,4,5,4l.26,4.22L150,61.69l2.37.79s3.51,4.67,4.83,6a22.89,22.89,0,0,1,2.82,4Z" style="fill:#b06b5a"></path><path d="M156.73,51.16a16.9,16.9,0,0,1-4.18.05,16.65,16.65,0,0,1-4.17-.46,17.27,17.27,0,0,1,4.19-.06A16.78,16.78,0,0,1,156.73,51.16Z" style="fill:#844e42"></path><path d="M154.64,61.56a2.22,2.22,0,0,1-1.73-.1,5.25,5.25,0,0,1-1.62-1,9,9,0,0,1-1.45-1.79,28.09,28.09,0,0,0-2.23-3.39c-.66-.77-1.23-1.1-1.19-1.17s.68.16,1.46.92a17.65,17.65,0,0,1,2.39,3.35,6.92,6.92,0,0,0,2.78,2.74A8.87,8.87,0,0,0,154.64,61.56Z" style="fill:#844e42"></path><path d="M153.05,46.14c-.14,0-.42-.65-.64-1.53s-.27-1.62-.13-1.65.42.65.64,1.53S153.19,46.11,153.05,46.14Z" style="fill:#844e42"></path><path d="M228.74,99.29s-8.54,16.78-11.63,29.29l-1,4.16s8.65,10.95,17.34,13.36l11.24-16.58Z" style="fill:#263238"></path><path d="M273.06,120.12c-.16-9.11,1.21-19.37-4.8-26.56-4.46-5.34-10.32-7.81-17.18-9-3.37-.57-7.48.17-10.75,1.2-4.48,1.42-7.15,5.65-10,9.41-5.64,7.53-7.56,18.94-5.61,22.64l31,25.86c7.74-2.15,12.42-2.67,15.51-11.72A34.87,34.87,0,0,0,273.06,120.12Z" style="fill:#263238"></path><path d="M266,100.29,245.45,89.14c-6.86-2.53-13.75,5-16,11.91-2.49,7.73-5.23,17.27-5.79,23.37-1.12,12.26,7.53,16.06,7.53,16.06s0,.18-.84,3.7l-1.45,5.68a10.15,10.15,0,0,0,.56,6.89c2.35,4.89,8.13,6.7,15.65,5.61,4.35-.64,7.79-3.05,9-7.07l14.59-49.85A4.28,4.28,0,0,0,266,100.29Z" style="fill:#b06b5a"></path><path d="M231.21,112.77a1.55,1.55,0,0,0,1.07,1.89,1.49,1.49,0,0,0,1.91-1,1.56,1.56,0,0,0-1.07-1.9A1.5,1.5,0,0,0,231.21,112.77Z" style="fill:#263238"></path><path d="M229.77,108.61c.14.25,1.5-.31,3.13.11s2.61,1.53,2.83,1.38,0-.47-.41-1a4.33,4.33,0,0,0-2.21-1.34,4,4,0,0,0-2.55.16C230,108.19,229.7,108.5,229.77,108.61Z" style="fill:#263238"></path><path d="M246.53,115.87a1.55,1.55,0,0,0,1.07,1.89,1.49,1.49,0,0,0,1.91-1,1.57,1.57,0,0,0-1.07-1.9A1.5,1.5,0,0,0,246.53,115.87Z" style="fill:#263238"></path><path d="M245.87,112.23c.14.25,1.5-.31,3.12.11s2.61,1.53,2.84,1.38,0-.47-.41-1a4.28,4.28,0,0,0-2.21-1.35,4.17,4.17,0,0,0-2.55.16C246.06,111.81,245.8,112.12,245.87,112.23Z" style="fill:#263238"></path><path d="M237.22,121.51a11.47,11.47,0,0,0-2.52-1.15c-.41-.14-.78-.33-.78-.63a2.23,2.23,0,0,1,.59-1.16c.65-.9,1.32-1.85,2-2.85,2.85-4.07,5-7.46,4.86-7.57s-2.6,3.09-5.45,7.16l-2,2.88a2.51,2.51,0,0,0-.63,1.58,1.06,1.06,0,0,0,.53.78,3.07,3.07,0,0,0,.68.28A10.73,10.73,0,0,0,237.22,121.51Z" style="fill:#263238"></path><path d="M231.2,140.48a31,31,0,0,0,16.86-.2s-6,7.26-17.52,3.16Z" style="fill:#844e42"></path><path d="M241.82,125.91a2.71,2.71,0,0,0-1.87-1.73,3.49,3.49,0,0,0-3.49.75,2.16,2.16,0,0,0-.52,1.49c0,.28,0,.14.14.36a6.16,6.16,0,0,0,2,2.13,2.64,2.64,0,0,0,3-.31A2.69,2.69,0,0,0,241.82,125.91Z" style="fill:#844e42"></path><path d="M242,124c-.26-.09-.72,1.68-2.56,2.54s-3.66.17-3.74.41.33.46,1.12.68a4.49,4.49,0,0,0,3.09-.25,4,4,0,0,0,2-2.15C242.2,124.5,242.12,124,242,124Z" style="fill:#263238"></path><path d="M246.52,106.1c0,.48,1.69.78,3.49,1.6s3.17,1.81,3.54,1.5c.17-.15,0-.64-.44-1.26a6.45,6.45,0,0,0-2.41-1.8,6.38,6.38,0,0,0-2.95-.56C247,105.64,246.52,105.87,246.52,106.1Z" style="fill:#263238"></path><path d="M230.85,104.22c.3.41,1.61.1,3.17.18s2.84.44,3.17.07c.15-.19,0-.58-.59-1a4.71,4.71,0,0,0-2.53-.79,4.78,4.78,0,0,0-2.58.59C230.92,103.65,230.71,104,230.85,104.22Z" style="fill:#263238"></path><path d="M246,87.93a2.56,2.56,0,0,0-.11.24l0,0Z" style="fill:#263238"></path><path d="M249,149.29c1-3,.41-6.45,1.43-9.48,1.09-3.22,3.83-5.6,5.39-8.62,2.5-4.83,1.73-10.7,2.15-16.16a12.87,12.87,0,0,1-6.78-6.11c-1.8-3.28-2.51-7-3.19-10.72a16.47,16.47,0,0,0,1.27,9.93,4.41,4.41,0,0,1-3.45-2,9.86,9.86,0,0,1-1.46-3.84,27.11,27.11,0,0,1-.08-10,34.93,34.93,0,0,0-1.4,14.22,6.17,6.17,0,0,0-2.61-.45,2.86,2.86,0,0,1-2.34-1,3.15,3.15,0,0,1-.34-1.72,36.21,36.21,0,0,1,2.18-12.19,37.79,37.79,0,0,0-4.16,6.13,13.31,13.31,0,0,0-1.57,7.14,1.07,1.07,0,0,1-1.47-.32,2.54,2.54,0,0,1-.33-1.63A18.57,18.57,0,0,1,234,96.53c-1.64,1.85-2.55,4.21-3.7,6.4s-2.71,4.36-5,5.25a32.27,32.27,0,0,1,2.24-9.06,28.21,28.21,0,0,1,4.21-6.67,22.14,22.14,0,0,1,6.25-5.69c4.16-2.32,5.34-.69,7.33,1l.24.16s0-.1.05-.16l.21-.45a34.18,34.18,0,0,1,17.49,4.58,24.28,24.28,0,0,1,9.52,12.05l.07.25c3.07,10,4.14,21.13-.4,43.67h0Z" style="fill:#263238"></path><path d="M152.65,60.56c.06,0,.15.12.15.35a1.17,1.17,0,0,1-.37.81,1.16,1.16,0,0,1-.81.36c-.23,0-.36-.09-.35-.15s.45-.21.8-.58S152.5,60.58,152.65,60.56Z" style="fill:#844e42"></path><path d="M274.92,37.46l.23-.44.24.43a2.13,2.13,0,0,0,.83.8l.44.22-.43.25a2,2,0,0,0-.8.83l-.22.43-.25-.42a2,2,0,0,0-.83-.8l-.43-.23.42-.24A2.13,2.13,0,0,0,274.92,37.46Z" style="fill:#e0e0e0"></path><path d="M261.72,33.3l.13-.25.14.24a1.27,1.27,0,0,0,.48.47l.26.13-.25.14a1.12,1.12,0,0,0-.46.48l-.14.26-.14-.25a1.21,1.21,0,0,0-.48-.47l-.25-.13.24-.14A1.21,1.21,0,0,0,261.72,33.3Z" style="fill:#e0e0e0"></path><path d="M253.84,67.13l.13-.25.14.24a1.21,1.21,0,0,0,.48.47l.25.13-.24.14a1.23,1.23,0,0,0-.47.49l-.13.25-.14-.25a1.12,1.12,0,0,0-.48-.46l-.26-.14.25-.14A1.21,1.21,0,0,0,253.84,67.13Z" style="fill:#e0e0e0"></path><path d="M329.25,43.72l.23-.44.24.43a2.09,2.09,0,0,0,.84.8l.43.23-.42.24a2,2,0,0,0-.81.83l-.22.43-.25-.42a2,2,0,0,0-.83-.8l-.43-.23.42-.24A2.13,2.13,0,0,0,329.25,43.72Z" style="fill:#e0e0e0"></path><path d="M327.56,27.14l.38-.73.41.72a3.47,3.47,0,0,0,1.4,1.34l.73.38-.72.41a3.41,3.41,0,0,0-1.34,1.4l-.38.73-.41-.72a3.41,3.41,0,0,0-1.4-1.34L325.5,29l.72-.41A3.41,3.41,0,0,0,327.56,27.14Z" style="fill:#e0e0e0"></path><path d="M271.59,23.52l.38-.73.41.72a3.41,3.41,0,0,0,1.4,1.34l.73.38-.72.41a3.41,3.41,0,0,0-1.34,1.4l-.38.73-.41-.72a3.47,3.47,0,0,0-1.4-1.34l-.73-.38.71-.41A3.43,3.43,0,0,0,271.59,23.52Z" style="fill:#e0e0e0"></path><path d="M284.52,91.45l-.19-.8.77.27A3.56,3.56,0,0,0,287,91l.8-.19-.27.77a3.56,3.56,0,0,0-.09,1.94l.2.8-.78-.27A3.56,3.56,0,0,0,285,94l-.8.2.27-.78A3.47,3.47,0,0,0,284.52,91.45Z" style="fill:#e0e0e0"></path><path d="M324,94.62c.58-.57-15.94-4.34-15.94-4.34l-6.14,45.9L266,153.37l-8,1.46-2-5.18-14.82,6.07-12.31-9.87-6.47,5.07-5-1.27c-2.52-3.31-10.91-14.33-12.54-16.77-1.74-2.59-35.42-72-35.69-73.35L153.8,67.74s15.92,40.47,23,60.75,19.5,42.9,19.5,42.9c.67,2.91,12.27,37.53,14.75,47.77,2.75,11.33,3.84,21.4,3.63,20.82l31.74.73L277,230.8s-8.35-20.13-8-21.88,8-30.28,8-30.28,43.22-26.49,45.84-33.75S323.43,95.19,324,94.62Z" style="fill:#fff"></path><path d="M324,94.62a1.83,1.83,0,0,0-.06.47c0,.32,0,.79,0,1.41,0,1.25,0,3.11.08,5.55.09,4.87.29,12.07.31,21.35,0,4.64,0,9.81-.42,15.46-.11,1.41-.24,2.85-.5,4.31a8.14,8.14,0,0,1-.63,2.17,9.19,9.19,0,0,1-1.34,1.88,57.42,57.42,0,0,1-7.12,6.4c-5.2,4.08-11,8.13-17.22,12.32s-12.9,8.47-20,12.86l.08-.11c-2.11,7.91-4.35,16.33-6.71,25.16-.29,1.11-.57,2.22-.86,3.34-.14.56-.29,1.12-.41,1.67a5.41,5.41,0,0,0,.28,1.62c.66,2.23,1.49,4.44,2.33,6.68,1.69,4.46,3.51,9,5.4,13.56l.09.22-.23.07-30.54,9.92,0,0h0l-31.74-.72.24-.32v0c.16,0-.43-.19-.38,0s-.06.14-.06.11h0v-.17l0-.25,0-.52-.12-1-.28-2.09c-.19-1.4-.41-2.8-.64-4.2q-.7-4.21-1.62-8.46c-1.17-5.66-2.93-11.26-4.67-17s-3.59-11.42-5.45-17.21-3.81-11.61-5.56-17.61l0,.07c-3.66-6.81-7.19-13.9-10.56-21.21s-6.56-14.88-9.29-22.67c-3.66-10.31-7.51-20.43-11.31-30.4s-7.62-19.77-11.39-29.4l-.09-.21.21-.11L169,59.31l.24-.13.13.3c.86,2,1.9,4.18,2.87,6.24l2.95,6.2,5.87,12.21,11.48,23.64c3.77,7.69,7.44,15.22,11.13,22.48.47.91.91,1.81,1.44,2.65l1.81,2.43,3.59,4.79,7,9.39-.12-.07,5,1.27-.19,0,6.48-5.06.13-.11.13.11,12.31,9.87-.21,0L256,149.47l.19-.08.07.19,2,5.18-.21-.12,8-1.45H266l35.92-17.15-.09.11c2.73-20.11,4.83-35.7,6.21-45.89l0-.09.08,0c5.52,1.29,9.55,2.31,12.18,3s3.94,1.21,3.74,1.38c.18-.14-1.14-.61-3.76-1.31s-6.67-1.7-12.2-3l.1-.06c-1.35,10.19-3.41,25.79-6.07,45.91v.08l-.07,0-35.89,17.22h0l-8,1.47-.16,0-.06-.15c-.64-1.65-1.28-3.33-2-5.18l.25.11-14.81,6.08-.11,0-.1-.07L228.77,146H229c-2.09,1.65-4.21,3.31-6.47,5.07l-.08.07-.1,0-5-1.27-.07,0,0-.06-7-9.4q-1.78-2.37-3.59-4.8c-.61-.8-1.21-1.61-1.82-2.42s-1-1.8-1.47-2.7c-3.7-7.27-7.37-14.79-11.15-22.48L180.66,84.35l-5.88-12.21-3-6.2c-1-2.11-2-4.11-2.91-6.36l.37.17L153.92,68l.11-.32q5.67,14.44,11.4,29.41c3.81,10,7.66,20.09,11.32,30.41,2.73,7.77,5.91,15.31,9.27,22.62s6.89,14.39,10.54,21.18l0,0v0c1.73,5.91,3.71,11.76,5.55,17.56s3.69,11.53,5.44,17.22,3.5,11.31,4.67,17q.92,4.24,1.62,8.48c.24,1.4.45,2.81.65,4.21l.28,2.11.11,1.05.05.53,0,.27V240s0,0-.07.15-.56,0-.39,0l0-.06-.16-.33h.4l31.73.74h-.07l30.54-9.9-.13.3c-1.89-4.59-3.7-9.11-5.39-13.58-.84-2.24-1.67-4.46-2.33-6.72a5.23,5.23,0,0,1-.29-1.8c.13-.59.27-1.14.41-1.71.3-1.11.59-2.23.87-3.33l6.75-25.16,0-.07.06,0q10.64-6.57,20-12.83c6.22-4.17,12-8.2,17.23-12.27a56.82,56.82,0,0,0,7.09-6.34,8.42,8.42,0,0,0,1.3-1.82,8,8,0,0,0,.62-2.1c.26-1.44.39-2.88.51-4.28.41-5.63.43-10.8.46-15.44,0-9.28-.15-16.47-.21-21.35,0-2.44,0-4.3,0-5.55A7,7,0,0,1,324,94.62Z" style="fill:#263238"></path><path d="M258.23,154.79s0,.1-.1.28a5.84,5.84,0,0,1-.4.79,12,12,0,0,1-2,2.62,18.55,18.55,0,0,1-4.13,3,49.07,49.07,0,0,1-5.94,2.66l-.24.1-.08-.25a25.83,25.83,0,0,0-1.92-4.58c-.4-.77-.88-1.5-1.36-2.26l-.38-.55a5.47,5.47,0,0,0-.36-.52c0-.18-.56.2-.93.39a21.67,21.67,0,0,0-4.19,3.29c-.62.6-1.19,1.23-1.76,1.85-.28.31-.55.62-.83.92l-.4.45-.2.23-.09.11,0,0s0,0,0,0,0-.23-.06-.25l-.34.34a74.1,74.1,0,0,1-7.53-8.81c-.84-1.15-1.47-2.08-1.88-2.72a5.78,5.78,0,0,1-.6-1,8.61,8.61,0,0,1,.72.94c.46.62,1.12,1.52,2,2.64a84.12,84.12,0,0,0,7.64,8.64l-.34.34a.3.3,0,0,1,0-.32l0,0,.06-.08.09-.12.2-.23.41-.46.83-.93c.56-.63,1.13-1.27,1.76-1.88a21.85,21.85,0,0,1,4.29-3.38l.61-.34a1.25,1.25,0,0,1,.41-.16.62.62,0,0,1,.52.18,4.1,4.1,0,0,1,.43.6l.39.56c.48.77,1,1.52,1.38,2.31a26,26,0,0,1,1.93,4.68l-.32-.15a54.75,54.75,0,0,0,5.93-2.57,19.16,19.16,0,0,0,4.12-2.87A15.75,15.75,0,0,0,258.23,154.79Z" style="fill:#263238"></path><path d="M259.89,198.54a10.11,10.11,0,0,1-1.29,1c-.84.6-2.1,1.4-3.69,2.33a73.23,73.23,0,0,1-27.08,9.27c-1.83.24-3.31.38-4.34.42a8.13,8.13,0,0,1-1.6,0,11.31,11.31,0,0,1,1.58-.23c1-.11,2.5-.3,4.31-.58a81.63,81.63,0,0,0,26.95-9.23c1.61-.89,2.89-1.64,3.76-2.18A9.36,9.36,0,0,1,259.89,198.54Z" style="fill:#263238"></path><path d="M241.2,207.69a1.89,1.89,0,0,1-.1-.5c-.06-.39-.12-.87-.2-1.45-.16-1.25-.36-3.07-.56-5.33-.4-4.5-.78-10.74-.84-17.65s.23-13.16.57-17.67c.16-2.25.33-4.08.47-5.33.07-.58.13-1.06.17-1.45a1.89,1.89,0,0,1,.1-.5,1.83,1.83,0,0,1,0,.51c0,.39,0,.87-.08,1.45-.08,1.34-.18,3.15-.31,5.35-.24,4.51-.46,10.74-.41,17.64s.38,13.12.69,17.63c.16,2.19.29,4,.39,5.33,0,.58.07,1.06.1,1.45A1.75,1.75,0,0,1,241.2,207.69Z" style="fill:#263238"></path><path d="M247.19,242.92a6.46,6.46,0,0,1-.36-1.29c-.21-.94-.49-2.13-.81-3.56-.68-3-1.62-7.14-2.74-11.7s-2.19-8.67-3-11.64l-.92-3.53a5.58,5.58,0,0,1-.28-1.31,7.19,7.19,0,0,1,.47,1.25c.27.82.64,2,1.08,3.49.88,3,2,7.05,3.14,11.62s2,8.72,2.59,11.75c.29,1.51.51,2.74.65,3.59A6.76,6.76,0,0,1,247.19,242.92Z" style="fill:#263238"></path><path d="M195,148.91a11.14,11.14,0,0,1,1.27,2.59,30.9,30.9,0,0,1,2.07,13.68,11,11,0,0,1-.45,2.85c-.08,0,0-1.11.09-2.87a39.47,39.47,0,0,0-.41-6.86,40,40,0,0,0-1.64-6.68A26.14,26.14,0,0,1,195,148.91Z" style="fill:#263238"></path><path d="M284.38,160.9a23.33,23.33,0,0,1-1.55,2.37,47,47,0,0,0-3.36,5.92,45.57,45.57,0,0,0-2.44,6.35,24.49,24.49,0,0,1-.84,2.71,10.88,10.88,0,0,1,.48-2.81,35.74,35.74,0,0,1,5.85-12.38A11.84,11.84,0,0,1,284.38,160.9Z" style="fill:#263238"></path><path d="M173.82,70.28a10.4,10.4,0,0,1-2.2,1.34,43.93,43.93,0,0,1-5.69,2.46,43,43,0,0,1-6,1.66,11.08,11.08,0,0,1-2.54.35,15.15,15.15,0,0,1,2.46-.7c1.53-.4,3.62-1,5.89-1.8s4.26-1.65,5.7-2.3A17.07,17.07,0,0,1,173.82,70.28Z" style="fill:#263238"></path><path d="M166.9,65.87s.15-.05.41,0a1.71,1.71,0,0,1,.86.72,2,2,0,0,1,.2,1.69,1.94,1.94,0,0,1-3.52,0,1.93,1.93,0,0,1,.23-1.68,1.64,1.64,0,0,1,.88-.7c.26-.08.41,0,.41,0s-.59.16-1,.91a1.62,1.62,0,0,0-.1,1.32,1.39,1.39,0,0,0,1.3.79,1.37,1.37,0,0,0,1.32-.76,1.65,1.65,0,0,0-.07-1.33C167.48,66.05,166.87,66,166.9,65.87Z" style="fill:#263238"></path><path d="M273.87,62.29c-1.54,1.53-3.12,3-4.62,4.61A6.39,6.39,0,0,0,267.39,72a7,7,0,0,0,2.89,4.81c4.77,4,10.73,7.47,17.13,7.28a17.1,17.1,0,0,0,11.46-5.23c1.25-1.23-.68-3.18-1.94-1.94a14.35,14.35,0,0,1-8.56,4.37,16.69,16.69,0,0,1-8.18-1.42,31.77,31.77,0,0,1-6.88-4.12A9.48,9.48,0,0,1,270.46,73a3.63,3.63,0,0,1,.72-4.15c1.5-1.58,3.08-3.08,4.62-4.61a1.37,1.37,0,0,0-1.93-1.94Z" style="fill:#F59E0B"></path><path d="M305,34.77c1.45-1.44,2.89-2.89,4.35-4.33a3.91,3.91,0,0,1,3.14-1.35c1.61.15,2.53,1.35,3.46,2.51,3.32,4.11,6.27,9.27,6.14,14.71a14.18,14.18,0,0,1-4.46,9.62c-1.23,1.26.7,3.2,1.94,2a17.35,17.35,0,0,0,5.16-10.13A19.54,19.54,0,0,0,323.05,38a35,35,0,0,0-4.84-7.9,9.16,9.16,0,0,0-3.94-3.36,6.31,6.31,0,0,0-5.78.85,51,51,0,0,0-5.42,5.28A1.37,1.37,0,0,0,305,34.77Z" style="fill:#F59E0B"></path><path d="M321,75,318,76.87l0,0-.05.08-.08,0,0,0-1.92,3.07s4.59,5.27,6.25,10.7l4.71-4.7.13-.13,4.72-4.7C326.3,79.57,321,75,321,75Z" style="fill:#F59E0B"></path><rect x="310.06" y="73.98" width="14.38" height="4.59" rx="2.26" transform="translate(38.77 246.32) rotate(-44.93)" style="fill:#F59E0B"></rect><path d="M300.59,26.76,284.23,43.09l-.87.86L267.9,59.37c.22.44,30.7,34.22,48.2,15.67l0,0C334.74,57.55,301,27,300.59,26.76Z" style="fill:#F59E0B"></path><g style="opacity:0.30000000000000004"><path d="M300.59,26.76c2,2,3.94,3.79,5.7,5.72,11.93,13,19.1,27.2,13.38,38.14L315,75.28s5.65-13.08-.51-23.8-14.82-23-14.82-23Z"></path></g><path d="M320.87,83.34h14.79a7,7,0,0,1,7,7v.11a0,0,0,0,1,0,0H313.85a0,0,0,0,1,0,0v-.11A7,7,0,0,1,320.87,83.34Z" transform="translate(34.48 257.22) rotate(-44.93)" style="fill:#F59E0B"></path><rect x="317.51" y="86.41" width="38.69" height="18.62" transform="translate(30.77 265.85) rotate(-44.93)" style="fill:#455a64"></rect><rect x="322.92" y="90.91" width="27.38" height="9.13" transform="translate(30.87 265.61) rotate(-44.93)" style="fill:#e0e0e0"></rect><path d="M322.74,74s-1.61,1.69-3.65,3.72-3.7,3.67-3.73,3.64S317,79.7,319,77.67,322.72,74,322.74,74Z" style="fill:#263238"></path><path d="M319.67,70.62s-1.74,1.82-3.94,4-4,4-4,3.93,1.74-1.82,3.94-4S319.64,70.6,319.67,70.62Z" style="fill:#263238"></path><path d="M330.88,79.14s-2.17,2.25-4.89,5S321,89,321,89s2.16-2.25,4.89-5S330.86,79.12,330.88,79.14Z" style="fill:#263238"></path><path d="M300.59,26.76l0,.11-.17.31-.66,1.19-.48.86-.6,1c-.44.72-.91,1.55-1.5,2.42-.29.44-.6.9-.91,1.39s-.67,1-1,1.47l-.55.77c-.09.13-.18.27-.28.4l-.29.39-1.24,1.62a86.19,86.19,0,0,1-6,6.84,88.26,88.26,0,0,1-6.73,6.1l-1.6,1.26-.39.3-.39.29L277,54c-.51.36-1,.73-1.46,1l-1.38.92c-.87.6-1.69,1.08-2.4,1.53l-1,.61-.86.48-1.18.66-.31.17-.11.06.1-.07.31-.18,1.17-.68.85-.49c.31-.18.64-.4,1-.62.71-.45,1.53-.93,2.4-1.54l1.37-.93c.47-.32,1-.69,1.45-1l.76-.56.4-.28.38-.31,1.6-1.26a86.29,86.29,0,0,0,6.71-6.1,87.82,87.82,0,0,0,6-6.81L294,37l.3-.39.28-.4.55-.77c.36-.5.72-1,1-1.46l.92-1.39c.59-.87,1.07-1.69,1.51-2.4.22-.36.43-.69.61-1s.34-.6.49-.85l.68-1.18.18-.31Z" style="fill:#263238"></path><polygon points="292.63 50.97 299.36 53.26 305.06 49.01 304.96 56.12 310.76 60.23 303.97 62.33 301.85 69.11 297.76 63.3 290.65 63.39 294.91 57.7 292.63 50.97" style="fill:#fff"></polygon><path d="M300.59,26.76l.1.09.29.26c.25.23.62.56,1.09,1,.94.88,2.28,2.18,3.86,3.86s3.42,3.73,5.29,6.14a65.81,65.81,0,0,1,5.54,8.23,42.83,42.83,0,0,1,3.91,9.11,27.22,27.22,0,0,1,.87,4.25l.06.5c0,.16,0,.33,0,.49l0,.49c0,.16,0,.32,0,.47,0,.64,0,1.24,0,1.82a17.67,17.67,0,0,1-1.18,5.32c-.23.6-.44,1.06-.59,1.36l-.18.35-.06.11a.67.67,0,0,1,.05-.12c0-.08.09-.2.17-.35.14-.31.34-.76.57-1.36a17.57,17.57,0,0,0,1.13-5.32,17.81,17.81,0,0,0,0-1.8l0-.48,0-.48c0-.16,0-.33,0-.49l-.07-.5a28.26,28.26,0,0,0-.88-4.23,42.56,42.56,0,0,0-3.9-9.08,67.88,67.88,0,0,0-5.52-8.22c-1.87-2.41-3.7-4.47-5.27-6.16S303,29,302,28.15c-.46-.45-.83-.79-1.08-1l-.28-.26Z" style="fill:#263238"></path><path d="M308.27,77.66l-.09.06-.27.18a7.22,7.22,0,0,1-1.11.54,8.12,8.12,0,0,1-1.89.44,11.81,11.81,0,0,1-2.59,0,19.25,19.25,0,0,1-3.07-.6l-1.67-.48-1.75-.61a46.86,46.86,0,0,1-7.4-3.56,70.62,70.62,0,0,1-6.81-4.6c-2-1.53-3.77-3-5.23-4.22s-2.61-2.26-3.41-3l-.92-.82-.23-.21a.45.45,0,0,1-.08-.08l.08.07.25.2.93.81c.81.7,2,1.71,3.44,2.94s3.22,2.67,5.23,4.19a71.27,71.27,0,0,0,6.81,4.59,49,49,0,0,0,7.38,3.56c.6.2,1.17.42,1.74.61l1.67.49a20.29,20.29,0,0,0,3.05.61,12.38,12.38,0,0,0,2.57,0,8.89,8.89,0,0,0,1.89-.42,7.53,7.53,0,0,0,1.11-.52l.27-.17Z" style="fill:#fff"></path><path d="M312.74,78.86a1.25,1.25,0,0,0,.18,1.54,3,3,0,0,0,1,.66l.46.21a1.57,1.57,0,0,1-.49-.13,2.56,2.56,0,0,1-1-.66,1.42,1.42,0,0,1-.34-1.18.77.77,0,0,1,.15-.34C312.69,78.89,312.73,78.86,312.74,78.86Z" style="fill:#fff"></path><path d="M321.68,89.52a1.61,1.61,0,0,1-.24.27,8.06,8.06,0,0,0-.6.75,7.09,7.09,0,0,0-1.22,2.91,7.23,7.23,0,0,0,.16,3.16c.11.39.23.7.31.91l.14.33s0,0-.05-.08-.08-.13-.13-.23a6.78,6.78,0,0,1-.35-.91,6.9,6.9,0,0,1-.2-3.2,6.74,6.74,0,0,1,1.91-3.67,1.38,1.38,0,0,1,.2-.18Z" style="fill:#fff"></path><path d="M310.74,80.5l8.45-8.06a4.51,4.51,0,0,1,.52,4.94,13.1,13.1,0,0,1-3.34,4.05c3.22,1.67,5.6,7,2.73,11.1" style="fill:#b06b5a"></path><path d="M320,90.72s0-.07.07-.19.12-.32.18-.58a7,7,0,0,0,.18-2.23,8.06,8.06,0,0,0-1-3.29,7.59,7.59,0,0,0-3.07-3.09l0,.17a24.16,24.16,0,0,0,2-2A8,8,0,0,0,320,77a5.25,5.25,0,0,0,.29-2.5,3.72,3.72,0,0,0-1-2.16l-.07-.08-.07.07-6,5.82-1.73,1.7-.46.45-.15.17s.07,0,.18-.14l.48-.43,1.77-1.66,6.09-5.76h-.15a3.61,3.61,0,0,1,.94,2,5.25,5.25,0,0,1-.28,2.41,7.92,7.92,0,0,1-1.53,2.45,23.83,23.83,0,0,1-1.94,2l-.1.09.13.07a7.52,7.52,0,0,1,3,3,8.31,8.31,0,0,1,1,3.22,7.46,7.46,0,0,1-.13,2.21C320.09,90.44,320,90.71,320,90.72Z" style="fill:#844e42"></path><path d="M256.73,287.64,245.36,240H214.72s-2.59,26.26-3.54,34.18S217.13,370,217.13,370l6.45,82.78h22.84l5.86-91C252.28,349.09,256.73,287.64,256.73,287.64Z" style="fill:#263238"></path><path d="M299.79,288.4C297.74,251.85,277,230.8,277,230.8c-.95,0-31.64,9.18-31.64,9.18L256.6,291.6h0l.68,12.56L265,446.92l25.49.27s1.28-23.91,5.18-72.41C298.15,344,301.27,314.94,299.79,288.4Z" style="fill:#263238"></path><path d="M254,275.53a6.59,6.59,0,0,1-.25-1.21c-.15-.88-.33-2-.55-3.3-.46-2.79-1.12-6.64-2-10.87s-1.72-8-2.38-10.78l-.78-3.26a5.62,5.62,0,0,1-.22-1.21,6.07,6.07,0,0,1,.42,1.15c.24.76.56,1.86.94,3.22.74,2.74,1.68,6.54,2.53,10.78s1.46,8.11,1.82,10.91c.19,1.41.32,2.55.39,3.34A5,5,0,0,1,254,275.53Z" style="fill:#455a64"></path><path d="M226.33,252.28a3.41,3.41,0,0,1,.1,1.05,25.76,25.76,0,0,1-.09,2.85,21.25,21.25,0,0,1-2.72,9,14.17,14.17,0,0,1-7.15,6.05,9.92,9.92,0,0,1-2.81.6,3.18,3.18,0,0,1-1,0,17.73,17.73,0,0,0,3.73-.91,14.5,14.5,0,0,0,6.83-6,22.46,22.46,0,0,0,2.8-8.78C226.26,253.77,226.25,252.28,226.33,252.28Z" style="fill:#455a64"></path><path d="M240.38,245c0,.05-.23.11-.59.33a3,3,0,0,0-1.1,1.34,2.9,2.9,0,0,0,0,2.46,2.71,2.71,0,0,0,4.81-.71,2.9,2.9,0,0,0-.66-2.36,3,3,0,0,0-1.44-1c-.41-.11-.66-.1-.66-.15a1.15,1.15,0,0,1,.7-.05,2.94,2.94,0,0,1,1.67.92,3.21,3.21,0,0,1,.86,2.71,2.54,2.54,0,0,1-.88,1.51,3.47,3.47,0,0,1-1.7.76,3.42,3.42,0,0,1-1.85-.24,2.6,2.6,0,0,1-1.27-1.2,3.19,3.19,0,0,1,.05-2.84,2.86,2.86,0,0,1,1.34-1.36A1.21,1.21,0,0,1,240.38,245Z" style="fill:#455a64"></path><path d="M287.23,251.14a3.38,3.38,0,0,1-.94.46,9.16,9.16,0,0,1-2.81.58,14.12,14.12,0,0,1-8.88-2.82,26.09,26.09,0,0,1-6.25-7c-.65-1-1.13-1.85-1.46-2.44a3.83,3.83,0,0,1-.45-.94c.07,0,.86,1.22,2.22,3.17a28.13,28.13,0,0,0,6.25,6.77,14.41,14.41,0,0,0,8.56,2.87A15.4,15.4,0,0,0,287.23,251.14Z" style="fill:#455a64"></path></g></svg>